inDegrees=no
num_controls=7
num_derivatives=13
num_iterations=71
num_multipliers=7
num_parameters=0
num_slacks=7
num_states=26
objective=0.332786
objective_accelerations=0.038559
objective_balance=0.001281
objective_effort=0.028810
objective_height=0.262481
objective_ligament=0.001656
solver_duration=810.349299
status=Solve_Succeeded
success=true
DataType=double
version=3
OpenSimVersion=4.5
endheader
time	/jointset/ground_pelvis/pelvis_tilt/value	/jointset/ground_pelvis/pelvis_tx/value	/jointset/ground_pelvis/pelvis_ty/value	/jointset/hip_r/hip_flexion_r/value	/jointset/hip_r/hip_adduction_r/value	/jointset/hip_r/hip_rotation_r/value	/jointset/back/lumbar_extension/value	/jointset/patellofemoral_r/patellar_flexion_r/value	/jointset/knee_r/knee_flexion_r/value	/jointset/knee_r/knee_adduction_r/value	/jointset/knee_r/knee_rotation_r/value	/jointset/ankle_r/ankle_angle_r/value	/jointset/subtalar_r/subtalar_angle_r/value	/jointset/ground_pelvis/pelvis_tilt/speed	/jointset/ground_pelvis/pelvis_tx/speed	/jointset/ground_pelvis/pelvis_ty/speed	/jointset/hip_r/hip_flexion_r/speed	/jointset/hip_r/hip_adduction_r/speed	/jointset/hip_r/hip_rotation_r/speed	/jointset/back/lumbar_extension/speed	/jointset/patellofemoral_r/patellar_flexion_r/speed	/jointset/knee_r/knee_flexion_r/speed	/jointset/knee_r/knee_adduction_r/speed	/jointset/knee_r/knee_rotation_r/speed	/jointset/ankle_r/ankle_angle_r/speed	/jointset/subtalar_r/subtalar_angle_r/speed	/forceset/tau_hip_flexion_r	/forceset/tau_hip_adduction_r	/forceset/tau_hip_rotation_r	/forceset/tau_knee_flexion_r	/forceset/tau_ankle_angle_r	/forceset/tau_subtalar_angle_r	/forceset/tau_lumbar_extension	lambda_cid13_p0	lambda_cid14_p0	lambda_cid14_p1	lambda_cid14_p2	lambda_cid14_p3	lambda_cid14_p4	lambda_cid14_p5	/jointset/ground_pelvis/pelvis_tilt/accel	/jointset/ground_pelvis/pelvis_tx/accel	/jointset/ground_pelvis/pelvis_ty/accel	/jointset/hip_r/hip_flexion_r/accel	/jointset/hip_r/hip_adduction_r/accel	/jointset/hip_r/hip_rotation_r/accel	/jointset/back/lumbar_extension/accel	/jointset/patellofemoral_r/patellar_flexion_r/accel	/jointset/knee_r/knee_flexion_r/accel	/jointset/knee_r/knee_adduction_r/accel	/jointset/knee_r/knee_rotation_r/accel	/jointset/ankle_r/ankle_angle_r/accel	/jointset/subtalar_r/subtalar_angle_r/accel	gamma_cid13_p0	gamma_cid14_p0	gamma_cid14_p1	gamma_cid14_p2	gamma_cid14_p3	gamma_cid14_p4	gamma_cid14_p5
0.5	-0.1862539087482315	0.02620960780395147	0.7960736697130548	0.9578650742924627	-0.243453869405637	-0.06710755417748437	-0.6549231659783832	0.9865927113562215	0.9865927113562021	0.02487262423928148	0.174398998481632	0.296275219141231	0.1065333115794545	-0.4684007397946848	-0.2123792313930837	-0.5388892836515335	2.051712936437604	-0.003421327477300378	0.3616813577572658	-0.7314375243719775	2.015235285705485	2.015235285705514	-0.3055607498445568	-0.0003243921736222462	0.5340571327254735	0.1808844948693472	-0.2247800438423509	0.01954514335690392	0.0295680937716411	-0.2712708118605427	-0.0180745804163095	-0.01338120084746891	0.2562431321115679	-6.535124905326221	-48.78601301478123	-13.50380365024355	1.60421388634603	-3.394198357895105	-639.7367933890655	49.508888417754	0.3767960708668349	0.6305006271397917	-0.4535113821333818	-1.345189058238236	-0.05274245445493659	-0.3151988762889388	1.96085394988623	-1.451103169600205	-1.451103169600206	0.6069072670448317	-0.07015047661978305	-0.61538725372402	-0.124795454404144	-1.155839177703641e-08	1.515864159301942e-07	2.816842432085079e-06	1.650166970877316e-06	-4.145435860935982e-07	-2.512204975807068e-08	1.855754594265578e-06
0.51	-0.1909179889589079	0.02411750314882946	0.7906633763691074	0.9783116967324337	-0.2434908297514242	-0.06351104267174366	-0.6621390334795475	1.006669291288012	1.006669291288005	0.02184452354954964	0.1743953369615153	0.3015840197967666	0.1083354178655467	-0.4643370636679869	-0.2060267950268641	-0.5430473011991778	2.037336831046946	-0.003959481676840879	0.3575619132655635	-0.7116510018157496	1.999804303127914	1.999804303127938	-0.3000950554564246	-0.0003950565141672131	0.5276221553833982	0.1795190678034239	-0.2321727593545743	0.02099099736122872	0.02967266526933649	-0.2758258121079896	-0.0196836321801907	-0.01307352655245811	0.2628597909112119	-5.651749795140868	-49.65078963635651	-13.67456996693691	1.806170123637047	-3.247352315128647	-645.2039527444749	49.53728836910378	0.4329039271347887	0.6397690325929811	-0.3786397253751339	-1.525009772065829	-0.05227085066346374	-0.4692046145522809	2.000297515257265	-1.630553031318952	-1.630553031319644	0.5114228221140527	0.02680134273731596	-0.6697738202139307	-0.1444433170329968	-9.84908941561359e-09	1.455686341124273e-07	2.708135825145524e-06	1.560011254715422e-06	-4.010132396895272e-07	-2.773082361294613e-08	1.846005820833545e-06
0.52	-0.1955390822996047	0.02208935363561564	0.7852151642928247	0.9986063204199811	-0.2435327554287987	-0.05995750308670824	-0.6691544865337961	1.026583269948129	1.026583269948135	0.01887008426318254	0.1743914339490949	0.3068260265097285	0.1101234644841104	-0.4598033657987497	-0.1995882030114468	-0.54647303011863	2.021313185952839	-0.004414393794782896	0.3530869736162053	-0.6913546349888744	1.982715031371011	1.98271503137103	-0.2948284691716166	-0.0003726906343454008	0.5206983442107371	0.1780725613636375	-0.2395654748667978	0.0224368513655536	0.02977723676703177	-0.2803808123554449	-0.02129268394407188	-0.01276585225744718	0.269476449710877	-4.835631647120974	-50.51344567653272	-13.84102832529404	2.002944348759537	-3.119214425556394	-650.6403864025302	49.56595096924473	0.4708004193747291	0.6477317569793327	-0.3070536564950083	-1.674696998928022	-0.03609403813523564	-0.3862979078200838	2.062822804015648	-1.782761005466255	-1.78276100546648	0.567085646379961	-0.05154443254642713	-0.7131540198411173	-0.14101132917677	-5.511370267522318e-09	1.403758384919902e-07	2.572272859685717e-06	1.473923561805408e-06	-3.848823972286888e-07	-2.945886692669184e-08	1.820241723161929e-06
0.53	-0.2001126029979581	0.02012595319239483	0.7797363714187918	1.018732690791747	-0.2435789138105684	-0.05644954934883425	-0.675964550066814	1.046318284480824	1.046318284480829	0.01594807997377798	0.1743876817290458	0.3119964051402728	0.1118964658304825	-0.4548286951470802	-0.1930832378279965	-0.5491606067081318	2.003698010717252	-0.004811027821289393	0.3485008467912964	-0.6705909376405483	1.964027414059737	1.964027414059736	-0.2895550410574291	-0.0003899981504971365	0.5133018389655617	0.176501215452988	-0.2467371544535185	0.0237517556254012	0.02977531302026709	-0.2851759584193098	-0.02276059334524046	-0.01247882611961598	0.2758680541414679	-4.086837585194934	-51.33812167006788	-14.00863977087591	2.198570739993381	-2.9649526452121	-656.1251500484993	49.61520431694347	0.5216258812353145	0.6531007878098292	-0.230875036509938	-1.844341469788586	-0.0401731164487683	-0.4952429201148038	2.093213296374783	-1.950830613582269	-1.950830613585191	0.5103945634801963	0.02170311616988654	-0.7643142085589013	-0.1686068858351465	-3.494908314017656e-09	1.349015184563321e-07	2.449338626187274e-06	1.388056564362888e-06	-3.704289905551489e-07	-2.851536849446475e-08	1.787962148141217e-06
0.54	-0.2046342118911604	0.01822784677876492	0.7742344497035974	1.038675026674374	-0.2436287835389112	-0.05298755144926705	-0.6825649626071221	1.065858609136481	1.065858609136485	0.01307939459942364	0.1743834618392991	0.3170905356320247	0.1136530715849829	-0.4494210047685205	-0.1865293970932661	-0.5510987983509202	1.984506288125083	-0.005156663109412366	0.3438958059548473	-0.649424436446869	1.943777055963492	1.943777055963472	-0.2841646861615592	-0.0004662245738729318	0.5054487164522834	0.1747934429892941	-0.2539088340402393	0.02506665988524881	0.02977338927350272	-0.2899711044831749	-0.02422850274640904	-0.01219179998178478	0.2822596585720586	-3.405144025664871	-52.16136509849012	-14.17166437942368	2.388515038878305	-2.832025579951247	-661.592966285701	49.66948264479277	0.5574043647527632	0.6575068672353598	-0.1571766671523195	-1.99000647024437	-0.02589429045853139	-0.3900807101281198	2.143383573086317	-2.095309162460365	-2.095309162460363	0.5904710027164437	-0.06332821399137804	-0.804477473459422	-0.1682966397856692	-4.046645809842894e-09	1.291157245995783e-07	2.340708521667366e-06	1.302433740629083e-06	-3.578314702845775e-07	-2.461612174754432e-08	1.748473959883205e-06
0.55	-0.2090996623501123	0.01639545427016679	0.7687168947198989	1.058417769306701	-0.2436818502406092	-0.04957226250689949	-0.6889518375982878	1.085188783756035	1.085188783756027	0.01026461640804632	0.1743784416674549	0.3221039492590789	0.1153919470662551	-0.4435987686175787	-0.179946749475808	-0.5522855252796669	1.963787895279051	-0.005446864131175549	0.3390674667746978	-0.6279047230902457	1.922006618625956	1.922006618625949	-0.2788583483185174	-0.0005068198859466118	0.497167788404602	0.1729644842537562	-0.2608579937254367	0.0262836005955472	0.02964603844424851	-0.2948736546021119	-0.02567335806281019	-0.01192025834924163	0.2884049693922147	-2.789623120759839	-52.97876676971976	-14.33787097376669	2.57608666133811	-2.641472722610384	-667.0200807324352	49.7253017596562	0.6051930724732538	0.6589267895652448	-0.08042423721664721	-2.150891038215362	-0.02881958503925748	-0.5434295544327201	2.163141021357019	-2.255597548120535	-2.255597548118575	0.4908890008463311	0.03055224602949089	-0.8499094686634872	-0.192262825920591	-2.61795490703257e-09	1.228769438950639e-07	2.209037041938745e-06	1.211630189820117e-06	-3.416807470088648e-07	-2.324504211009434e-08	1.699688590278166e-06
0.5600000000000001	-0.2135047784811131	0.01462894485385607	0.7631912717606165	1.077945700941281	-0.2437374662679257	-0.0462081007628283	-0.6951221402950061	1.104293716696471	1.104293716696449	0.007500936360249214	0.1743740110296589	0.3270325518060082	0.1171121194930754	-0.437354139178303	-0.1733527786357816	-0.5527123934676466	1.94154408857571	-0.005666528233101363	0.3336703662955737	-0.606109977557354	1.898728720139606	1.898728720139611	-0.2739450574454985	-0.0003483177642261382	0.4884865004272808	0.1710528320989085	-0.267807153410634	0.0275005413058456	0.02951868761499464	-0.2997762047210493	-0.02711821337921135	-0.01164871671669846	0.2945502802124478	-2.238967135759509	-53.79578534016338	-14.499358701704	2.75759342850715	-2.472696402131449	-672.4483427933876	49.79046270152542	0.6418830224195459	0.6597715117490045	-0.005204918998949006	-2.295089241706034	-0.01178690649106448	-0.5038329699230598	2.198390008340025	-2.396801392223185	-2.396801392223526	0.5118616087118441	-0.02350872723254726	-0.8845494593873902	-0.1848353236476495	1.187250074140349e-09	1.160945789732367e-07	2.049715911959673e-06	1.114609766520957e-06	-3.212661801269826e-07	-2.490776300400881e-08	1.639746603056694e-06
0.5700000000000001	-0.2178454424509096	0.01292837291449729	0.7576651669920115	1.09724377175783	-0.2437950995591237	-0.04289887859340117	-0.701073233689086	1.123158619910236	1.123158619910226	0.004786162848243685	0.1743712935760545	0.3318723761022014	0.1188124392337989	-0.4307126278962071	-0.166764653699383	-0.5523815821037368	1.917825074342109	-0.005864421035068754	0.3282262517269163	-0.584081285142824	1.874023333233891	1.874023333233884	-0.2689272917153386	-0.0002156578976288301	0.4794155434477259	0.168967595402049	-0.274478118950888	0.02856039268915875	0.02931834119832179	-0.3047773563056355	-0.02849485695673721	-0.01138961449066556	0.3004026304133053	-1.752091186229893	-54.58761100686991	-14.65894828934424	2.935495568147166	-2.254292777462346	-677.7651651911937	49.86147870702354	0.685199792187383	0.6578143713653928	0.07126571687177975	-2.447043593860025	-0.0241993854764413	-0.5569100359996483	2.209221275389288	-2.541696414603237	-2.541696414604721	0.5093174862459997	0.02886648373550963	-0.927855206990321	-0.2264619702799762	2.333379783047798e-10	1.072422717492236e-07	1.9045721692471e-06	1.002855581675471e-06	-3.014323690913339e-07	-2.477503787590368e-08	1.563452994369365e-06
0.58	-0.2221177083856686	0.01129357850185855	0.7521461786476028	1.116297305216109	-0.2438547935620267	-0.03964253943679312	-0.7068032176755445	1.141769611439972	1.141769611439974	0.002124083679755504	0.1743693453491421	0.3366195935506495	0.1204906877820388	-0.4236745321708003	-0.160197273291771	-0.5512891086283936	1.892636616921596	-0.006078670574109856	0.3230937637317564	-0.561888096033081	1.847946383333875	1.847946383333859	-0.2634061887420613	-0.0001944724258524499	0.4699651308782619	0.1666385936021946	-0.2811490844911418	0.02962024407247196	0.02911799478164846	-0.3097785078902218	-0.02987150053426306	-0.01113051226463252	0.3062549806141628	-1.328025668834455	-55.38002950641445	-14.81358690151485	3.10683675986613	-2.058436981790431	-683.1008809952324	49.94646088605502	0.7211999110817335	0.6556226059916874	0.1471275032877276	-2.588977879088148	-0.01505825390571652	-0.4415076552235488	2.231289347382662	-2.6711139910832	-2.671113991083203	0.6125290573353452	-0.04580360619738514	-0.960440577357036	-0.2335883442466249	-6.918494031774123e-09	9.569422571306164e-08	1.777892000649039e-06	8.719132422580263e-07	-2.823548912507801e-07	-2.230405746330804e-08	1.465864250749759e-06
